<svg xmlns="http://www.w3.org/2000/svg" xmlns:xlink="http://www.w3.org/1999/xlink" width="500" zoomAndPan="magnify" viewBox="0 0 375 225" height="300" preserveAspectRatio="xMidYMid meet" version="1.0"><defs><g/></defs><g fill="#ffffff" fill-opacity="1"><g transform="translate(0.111668, 172.639946)"><g><path d="M 138.433594 -59.484375 L 138.433594 -82.785156 L 146.105469 -82.785156 L 146.105469 -91.96875 L 135.417969 -91.96875 L 135.417969 -95.257812 C 135.417969 -96.355469 135.417969 -97.3125 135.28125 -98.273438 L 145.96875 -98.273438 C 145.832031 -102.109375 145.285156 -105.125 144.324219 -107.320312 L 135.003906 -107.320312 C 134.867188 -107.730469 134.730469 -108.140625 134.457031 -108.550781 C 132.8125 -111.429688 129.660156 -112.9375 125.273438 -112.9375 L 112.800781 -112.9375 C 111.019531 -112.9375 109.375 -112.800781 108.140625 -112.390625 C 106.632812 -111.980469 105.398438 -111.292969 104.304688 -110.335938 C 103.617188 -109.511719 102.796875 -108.550781 102.246094 -107.320312 L 111.566406 -107.320312 C 111.292969 -107.042969 111.019531 -106.632812 110.882812 -106.359375 C 110.199219 -104.714844 109.375 -102.660156 108.550781 -100.054688 L 107.867188 -98.273438 L 97.175781 -98.273438 L 94.710938 -91.96875 L 105.398438 -91.96875 L 101.699219 -82.785156 L 94.023438 -82.785156 L 84.703125 -59.484375 L 94.574219 -59.484375 L 93.339844 -56.46875 L 92.105469 -56.46875 L 86.074219 -41.667969 L 82.238281 -41.667969 L 76.207031 -56.46875 L 77.578125 -56.46875 L 76.34375 -59.484375 L 66.476562 -59.484375 L 57.15625 -82.785156 L 64.96875 -82.785156 L 61.265625 -91.96875 L 50.574219 -91.96875 L 48.109375 -98.273438 L 58.664062 -98.273438 L 57.976562 -100.054688 C 57.15625 -102.660156 56.332031 -104.714844 55.648438 -106.359375 C 55.371094 -106.632812 55.234375 -107.042969 54.960938 -107.320312 L 45.777344 -107.320312 C 45.09375 -108.550781 44.40625 -109.511719 43.585938 -110.335938 C 42.488281 -111.292969 41.253906 -111.980469 39.746094 -112.390625 C 38.378906 -112.800781 36.871094 -112.9375 34.949219 -112.9375 L 22.339844 -112.9375 C 17.816406 -112.9375 14.664062 -111.429688 13.019531 -108.550781 C 12.746094 -108.140625 12.609375 -107.730469 12.335938 -107.320312 L 21.65625 -107.320312 C 20.832031 -105.125 20.285156 -102.109375 20.148438 -98.273438 L 2.46875 -98.273438 C 2.46875 -97.3125 2.46875 -96.355469 2.46875 -95.257812 L 2.46875 -91.96875 L 20.148438 -91.96875 L 20.148438 -82.785156 L 12.335938 -82.785156 L 12.335938 -59.484375 L 22.203125 -59.484375 L 22.203125 -56.46875 L 9.457031 -56.46875 L 9.457031 -41.667969 L 16.308594 -41.667969 L 16.308594 -18.640625 L 11.101562 -18.640625 L 11.101562 -15.488281 L 12.335938 -15.488281 L 12.335938 -6.441406 L 22.203125 -6.441406 L 22.203125 -4.660156 C 22.203125 -0.410156 24.945312 0.136719 26.179688 0.136719 L 37.964844 0.136719 C 39.199219 0.136719 41.804688 -0.410156 41.804688 -4.660156 L 41.804688 -6.441406 L 37.964844 -6.441406 L 37.964844 -15.488281 L 50.574219 -15.488281 L 50.574219 -18.640625 L 42.488281 -18.640625 L 42.488281 -32.484375 L 30.015625 -32.484375 L 30.015625 -41.667969 L 39.335938 -41.667969 L 39.335938 -56.46875 L 41.804688 -56.46875 L 41.804688 -59.484375 L 32.074219 -59.484375 L 32.074219 -82.785156 L 34.675781 -82.785156 L 44.132812 -59.484375 L 54.003906 -59.484375 L 55.234375 -56.46875 L 53.863281 -56.46875 L 59.894531 -41.667969 L 51.535156 -41.667969 L 55.234375 -32.484375 L 63.046875 -32.484375 L 64.554688 -28.921875 C 65.515625 -26.042969 66.476562 -23.574219 67.433594 -21.519531 C 67.980469 -20.421875 68.53125 -19.460938 69.078125 -18.640625 L 69.351562 -18.640625 C 69.902344 -17.816406 70.449219 -17.132812 70.996094 -16.449219 C 71.273438 -16.171875 71.546875 -15.898438 71.957031 -15.488281 L 61.953125 -15.488281 C 63.046875 -14.664062 64.144531 -13.84375 65.378906 -13.433594 C 67.023438 -12.882812 68.804688 -12.609375 70.859375 -12.609375 L 76.480469 -12.609375 C 78.535156 -12.609375 80.453125 -12.882812 81.960938 -13.433594 C 83.195312 -13.84375 84.429688 -14.664062 85.390625 -15.488281 L 95.394531 -15.488281 C 95.667969 -15.898438 95.941406 -16.171875 96.21875 -16.449219 C 96.765625 -17.132812 97.3125 -17.816406 97.863281 -18.640625 L 97.585938 -18.640625 C 98.273438 -19.460938 98.820312 -20.421875 99.371094 -21.519531 C 100.328125 -23.574219 101.289062 -26.042969 102.246094 -28.921875 L 103.753906 -32.484375 L 95.941406 -32.484375 L 99.644531 -41.667969 L 108.003906 -41.667969 L 113.898438 -56.46875 L 115.269531 -56.46875 L 116.503906 -59.484375 L 106.632812 -59.484375 L 116.089844 -82.785156 L 118.832031 -82.785156 L 118.832031 -59.484375 L 128.5625 -59.484375 L 128.5625 -56.46875 L 127.328125 -56.46875 L 127.328125 -41.667969 L 118.558594 -41.667969 L 118.558594 -32.484375 L 127.328125 -32.484375 L 127.328125 -18.640625 L 111.980469 -18.640625 L 111.980469 -15.488281 L 125.273438 -15.488281 L 125.273438 -6.441406 L 120.203125 -6.441406 L 120.203125 -4.660156 C 120.203125 -0.410156 122.808594 0.136719 124.039062 0.136719 L 135.828125 0.136719 C 137.0625 0.136719 139.800781 -0.410156 139.800781 -4.660156 L 139.800781 -6.441406 L 144.875 -6.441406 L 144.875 -15.488281 L 136.648438 -15.488281 L 136.648438 -18.640625 L 146.929688 -18.640625 L 146.929688 -32.484375 L 142.269531 -32.484375 L 142.269531 -41.667969 L 146.929688 -41.667969 L 146.929688 -56.46875 L 154.46875 -56.46875 L 154.46875 -59.484375 Z M 62.773438 -7.675781 L 42.625 -7.675781 L 42.625 -9.457031 L 62.773438 -9.457031 Z M 94.296875 -98.136719 L 74.148438 -98.136719 L 74.148438 -99.78125 L 94.296875 -99.78125 Z M 85.9375 -74.699219 L 66.75 -74.699219 L 66.75 -76.070312 L 85.9375 -76.070312 Z M 113.488281 -11.648438 L 94.296875 -11.648438 L 94.296875 -13.15625 L 113.488281 -13.15625 Z M 113.488281 -11.648438 "/></g></g></g><g fill="#ffffff" fill-opacity="1"><g transform="translate(143.86462, 172.639946)"><g><path d="M 90.1875 -55.371094 C 92.242188 -58.386719 93.75 -61.953125 94.710938 -66.199219 L 111.980469 -66.199219 C 112.253906 -67.160156 112.527344 -68.394531 112.664062 -69.488281 L 93.886719 -69.488281 C 94.433594 -72.503906 94.710938 -75.792969 94.710938 -79.359375 L 109.238281 -79.359375 C 109.238281 -79.496094 109.238281 -79.632812 109.238281 -79.769531 C 109.238281 -83.195312 108.964844 -86.347656 108.550781 -89.089844 L 103.207031 -89.089844 C 103.207031 -89.226562 103.207031 -89.226562 103.207031 -89.226562 L 97.175781 -89.226562 C 96.628906 -92.925781 95.804688 -96.078125 94.710938 -98.957031 L 105.398438 -98.957031 C 104.578125 -100.878906 103.617188 -102.660156 102.523438 -104.167969 C 101.289062 -106.085938 99.644531 -107.59375 97.726562 -108.828125 L 86.074219 -108.828125 C 82.101562 -111.566406 77.027344 -112.9375 70.585938 -112.9375 L 7.402344 -112.9375 C 6.304688 -112.9375 3.835938 -112.527344 3.5625 -108.828125 L 15.214844 -108.828125 C 15.214844 -108.550781 15.214844 -108.414062 15.214844 -108.140625 L 15.214844 -98.957031 L 4.386719 -98.957031 L 4.386719 -97.3125 C 4.386719 -93.066406 7.128906 -92.652344 8.359375 -92.652344 L 67.980469 -92.652344 C 71.546875 -92.652344 74.011719 -91.695312 75.382812 -89.636719 C 75.382812 -89.5 75.519531 -89.363281 75.519531 -89.226562 L 81.550781 -89.226562 C 81.550781 -89.226562 81.550781 -89.226562 81.550781 -89.089844 L 86.898438 -89.089844 C 88.265625 -87.035156 88.953125 -83.882812 88.953125 -79.769531 C 88.953125 -79.632812 88.816406 -79.496094 88.816406 -79.359375 L 74.425781 -79.359375 C 74.425781 -75.109375 73.601562 -71.957031 72.230469 -69.902344 C 72.09375 -69.765625 71.957031 -69.628906 71.820312 -69.488281 L 90.597656 -69.488281 C 89.089844 -67.84375 86.898438 -66.886719 83.605469 -66.886719 L 23.984375 -66.886719 C 23.4375 -66.886719 22.476562 -66.886719 21.519531 -66.199219 L 4.25 -66.199219 C 3.425781 -65.515625 2.742188 -64.28125 2.742188 -62.226562 L 2.742188 -50.988281 L 15.761719 -50.988281 L 15.761719 -41.117188 L 6.304688 -41.117188 L 6.304688 -25.082031 L 16.449219 -25.082031 L 16.449219 -21.65625 L 6.304688 -21.65625 L 6.304688 -4.660156 C 6.304688 -4.113281 6.304688 -3.5625 6.441406 -3.152344 L 12.746094 -3.152344 C 13.296875 -0.273438 15.488281 0.136719 16.585938 0.136719 L 29.058594 0.136719 C 30.152344 0.136719 32.210938 -0.273438 32.757812 -3.152344 L 26.453125 -3.152344 C 26.589844 -3.5625 26.589844 -4.113281 26.589844 -4.660156 L 26.589844 -21.65625 L 49.203125 -21.65625 L 49.203125 -25.082031 L 26.589844 -25.082031 L 26.589844 -41.117188 L 36.046875 -41.117188 L 36.046875 -46.601562 L 64.96875 -46.601562 L 67.980469 -41.117188 L 58.523438 -41.117188 L 67.707031 -25.082031 L 77.851562 -25.082031 L 79.632812 -21.65625 L 69.628906 -21.65625 L 80.179688 -3.152344 L 86.484375 -3.152344 L 86.761719 -2.605469 C 87.171875 -1.78125 87.71875 -1.097656 88.128906 -0.683594 C 88.816406 -0.136719 89.773438 0.136719 91.144531 0.136719 L 106.085938 0.136719 C 107.730469 0.136719 108.964844 -0.960938 109.238281 -2.605469 C 109.238281 -2.742188 109.238281 -2.878906 109.238281 -3.152344 L 102.933594 -3.152344 C 102.933594 -4.25 102.796875 -5.207031 102.386719 -5.894531 L 93.066406 -21.65625 L 103.207031 -21.65625 L 101.289062 -25.082031 L 91.144531 -25.082031 L 81.6875 -41.117188 L 91.144531 -41.117188 L 87.71875 -47.011719 C 92.105469 -47.558594 95.804688 -48.929688 98.820312 -50.988281 L 85.800781 -50.988281 C 87.445312 -52.21875 88.953125 -53.726562 90.1875 -55.371094 Z M 41.941406 -71.683594 L 13.15625 -71.683594 L 13.15625 -75.246094 L 41.941406 -75.246094 Z M 54.6875 -85.664062 L 29.332031 -85.664062 L 29.332031 -87.445312 L 54.6875 -87.445312 Z M 61.953125 -11.925781 L 36.59375 -11.925781 L 36.59375 -13.84375 L 61.953125 -13.84375 Z M 61.953125 -11.925781 "/></g></g></g><g fill="#ffffff" fill-opacity="1"><g transform="translate(258.427795, 172.639946)"><g><path d="M 104.714844 -66.613281 L 104.714844 -67.160156 C 104.714844 -67.980469 104.714844 -68.667969 104.578125 -69.488281 L 111.292969 -69.488281 C 111.15625 -74.5625 110.746094 -79.222656 110.058594 -83.332031 L 97.585938 -83.332031 C 97.3125 -84.839844 97.039062 -86.074219 96.765625 -87.445312 C 96.355469 -88.953125 95.941406 -90.460938 95.394531 -91.96875 L 109.511719 -91.96875 C 108.277344 -95.804688 106.496094 -99.09375 104.304688 -101.835938 C 103.34375 -102.933594 102.386719 -104.03125 101.289062 -104.988281 L 87.445312 -104.988281 C 86.210938 -106.085938 84.976562 -107.042969 83.605469 -107.867188 L 97.175781 -107.867188 C 95.804688 -108.691406 94.160156 -109.511719 92.515625 -110.199219 C 87.855469 -111.980469 82.375 -112.9375 75.933594 -112.9375 L 28.097656 -112.9375 L 28.097656 -112.800781 C 24.535156 -112.527344 21.246094 -110.746094 19.1875 -107.867188 L 5.621094 -107.867188 C 5.34375 -107.59375 5.207031 -107.320312 4.933594 -107.042969 C 4.660156 -106.359375 4.25 -105.675781 4.113281 -104.988281 L 17.953125 -104.988281 C 17.816406 -104.578125 17.542969 -104.03125 17.542969 -103.617188 L 17.40625 -91.96875 L 3.289062 -91.96875 L 3.289062 -83.332031 L 15.761719 -83.332031 L 15.761719 -69.488281 L 9.183594 -69.488281 L 9.183594 -66.613281 L 17.542969 -66.613281 L 17.40625 -44.820312 L 9.867188 -44.820312 L 9.867188 -36.320312 L 15.898438 -36.320312 L 15.898438 -17.953125 L 8.359375 -17.953125 L 8.359375 -10.003906 C 8.359375 -9.730469 8.496094 -9.59375 8.496094 -9.457031 L 14.941406 -9.457031 C 15.214844 -8.359375 15.488281 -7.402344 16.035156 -6.578125 L 3.289062 -6.578125 C 3.425781 -6.304688 3.5625 -6.03125 3.699219 -5.757812 C 5.894531 -2.054688 9.730469 0.136719 13.980469 0.136719 L 60.855469 0.136719 C 67.296875 0.136719 72.917969 -0.824219 77.578125 -2.605469 C 80.042969 -3.5625 82.375 -4.933594 84.566406 -6.578125 L 97.175781 -6.578125 C 98.273438 -7.402344 99.371094 -8.359375 100.328125 -9.457031 L 93.886719 -9.457031 C 94.296875 -9.867188 94.847656 -10.417969 95.257812 -11.101562 C 96.902344 -13.019531 98.273438 -15.351562 99.371094 -17.953125 L 106.90625 -17.953125 C 108.003906 -20.148438 108.828125 -22.753906 109.511719 -25.355469 C 110.199219 -28.644531 110.746094 -32.347656 111.15625 -36.320312 L 104.988281 -36.320312 C 105.261719 -38.925781 105.398438 -41.804688 105.398438 -44.820312 L 113.074219 -44.820312 C 113.074219 -45.09375 113.074219 -45.367188 113.074219 -45.640625 L 113.074219 -66.613281 Z M 92.789062 -44.820312 L 85.113281 -44.820312 L 85.113281 -43.585938 C 85.113281 -40.84375 84.976562 -38.515625 84.703125 -36.320312 L 90.871094 -36.320312 C 90.734375 -34.8125 90.597656 -33.441406 90.324219 -32.210938 C 89.773438 -29.195312 88.816406 -26.863281 87.445312 -25.082031 C 86.210938 -23.4375 84.566406 -22.203125 82.375 -21.382812 C 80.179688 -20.558594 77.441406 -20.285156 74.289062 -20.285156 L 36.183594 -20.285156 C 36.183594 -20.285156 36.046875 -20.421875 36.046875 -20.96875 L 36.046875 -24.945312 L 63.734375 -24.945312 L 63.734375 -29.46875 L 36.046875 -29.46875 L 36.046875 -36.320312 L 29.878906 -36.320312 L 29.878906 -44.820312 L 37.554688 -44.820312 L 37.554688 -66.613281 L 29.195312 -66.613281 L 29.195312 -69.488281 L 35.773438 -69.488281 L 35.773438 -83.332031 L 23.300781 -83.332031 L 23.300781 -91.832031 C 23.300781 -91.832031 23.300781 -91.832031 23.300781 -91.96875 L 37.417969 -91.96875 C 37.554688 -92.378906 37.554688 -92.652344 37.691406 -92.652344 L 75.65625 -92.652344 C 78.125 -92.652344 80.179688 -92.378906 82.101562 -91.96875 L 67.84375 -91.96875 C 68.53125 -91.832031 69.078125 -91.558594 69.628906 -91.417969 C 71.820312 -90.597656 73.464844 -89.5 74.699219 -87.71875 C 75.65625 -86.621094 76.34375 -85.113281 76.890625 -83.332031 L 89.363281 -83.332031 C 89.636719 -82.511719 89.914062 -81.6875 90.050781 -80.730469 C 90.734375 -77.714844 91.007812 -73.875 91.007812 -69.488281 L 59.074219 -69.488281 C 59.074219 -69.351562 59.074219 -69.351562 59.074219 -69.214844 L 59.074219 -66.613281 L 92.789062 -66.613281 Z M 46.191406 -44.132812 L 76.207031 -44.132812 L 76.207031 -42.761719 L 46.191406 -42.761719 Z M 33.578125 -57.15625 L 63.460938 -57.15625 L 63.460938 -55.648438 L 33.578125 -55.648438 Z M 36.734375 -89.363281 L 55.785156 -89.363281 L 55.785156 -87.855469 L 36.734375 -87.855469 Z M 36.734375 -89.363281 "/></g></g></g></svg>